<?xml version="1.0" ?><!-- Uploaded to: SVG Repo, www.svgrepo.com, Generator: SVG Repo Mixer Tools -->
<svg fill="#000000" width="800px" height="800px" viewBox="0 0 64 64" id="Layer_1_1_" version="1.1" xml:space="preserve" xmlns="http://www.w3.org/2000/svg" xmlns:xlink="http://www.w3.org/1999/xlink"><path d="M47,35v-1c0-1.302-0.839-2.402-2-2.816V28c0-1.302-0.839-2.402-2-2.816V14c0-4.625-3.507-8.442-8-8.941V1h-6v4.059  C24.507,5.558,21,9.375,21,14v11.184c-1.161,0.414-2,1.514-2,2.816v3.184c-1.161,0.414-2,1.514-2,2.816v1c-1.103,0-2,0.897-2,2v2  c0,1.103,0.897,2,2,2h2v10h4v12h6V51h4v12h10V51h2V41h2c1.103,0,2-0.897,2-2v-2C49,35.897,48.103,35,47,35z M34,7  c1.902,0,3.626,0.765,4.889,2H25.111C26.374,7.765,28.098,7,30,7H34z M33,3v2h-2V3H33z M23.685,11h16.63  C40.749,11.911,41,12.926,41,14v11h-6v-6h1c1.654,0,3-1.346,3-3s-1.346-3-3-3s-3,1.346-3,3v1h-2v-1c0-1.654-1.346-3-3-3  s-3,1.346-3,3s1.346,3,3,3h1v6h-6V14C23,12.926,23.251,11.911,23.685,11z M29,17h-1c-0.552,0-1-0.448-1-1s0.448-1,1-1s1,0.448,1,1  V17z M33,25h-2v-6h2V25z M35,17v-1c0-0.552,0.448-1,1-1s1,0.448,1,1s-0.448,1-1,1H35z M22,27h20c0.552,0,1,0.448,1,1v3H21v-3  C21,27.448,21.448,27,22,27z M19,34c0-0.552,0.448-1,1-1h24c0.552,0,1,0.448,1,1v1H19V34z M27,61h-2V51h2V61z M41,61h-2v-4h-2v4h-2  V51h6V61z M21,49v-2h22v2H21z M43,45H21v-4h22V45z M47,39H17l-0.002-2H17h30V39z"/></svg>