<?xml version="1.0" encoding="iso-8859-1"?>
<!-- Uploaded to: SVG Repo, www.svgrepo.com, Generator: SVG Repo Mixer Tools -->
<svg fill="#000000" height="800px" width="800px" version="1.1" id="Layer_1" xmlns="http://www.w3.org/2000/svg" xmlns:xlink="http://www.w3.org/1999/xlink" 
	 viewBox="0 0 470 470" xml:space="preserve">
<g>
	<g>
		<g>
			<path d="M338.125,142.5c4.143,0,7.5-3.358,7.5-7.5v-30c0-4.142-3.357-7.5-7.5-7.5s-7.5,3.358-7.5,7.5v30
				C330.625,139.142,333.983,142.5,338.125,142.5z"/>
			<path d="M330.625,195c0,4.142,3.357,7.5,7.5,7.5s7.5-3.358,7.5-7.5v-30c0-4.142-3.357-7.5-7.5-7.5s-7.5,3.358-7.5,7.5V195z"/>
			<path d="M330.625,315c0,4.142,3.357,7.5,7.5,7.5s7.5-3.358,7.5-7.5v-30c0-4.142-3.357-7.5-7.5-7.5s-7.5,3.358-7.5,7.5V315z"/>
			<path d="M469.523,459.867L451.25,411.14V7.5c0-4.142-3.357-7.5-7.5-7.5h-75c-4.143,0-7.5,3.358-7.5,7.5V20h-45V7.5
				c0-4.142-3.357-7.5-7.5-7.5h-75c-4.143,0-7.5,3.358-7.5,7.5v101.788c0,4.142,3.357,7.5,7.5,7.5s7.5-3.358,7.5-7.5V15h60v367.5
				c0,4.142,3.357,7.5,7.5,7.5s7.5-3.358,7.5-7.5V35h45v347.5c0,4.142,3.357,7.5,7.5,7.5s7.5-3.358,7.5-7.5V15h60v390h-195v-61.485
				c1.431,0.172,2.875,0.287,4.338,0.287c20.343,0,36.894-16.55,36.894-36.894c0-1.746-0.127-3.516-0.376-5.262L263.33,170.427
				c-3.607-25.215-25.56-44.229-51.063-44.229c-17.103,0-33.046,8.523-42.607,22.513h-56.835
				c-9.562-13.989-25.505-22.513-42.607-22.513c-25.503,0-47.456,19.014-51.064,44.229L0.376,301.647
				C0.127,303.393,0,305.163,0,306.908c0,20.343,16.551,36.894,36.894,36.894c15.225,0,29.087-9.562,34.496-23.795l17.229-45.361
				h105.232l17.241,45.362c2.936,7.726,8.374,14.056,15.157,18.247v72.885l-18.272,48.727c-0.863,2.303-0.543,4.883,0.858,6.905
				c1.4,2.022,3.704,3.228,6.164,3.228h247.5c2.46,0,4.764-1.206,6.164-3.228C470.066,464.75,470.386,462.17,469.523,459.867z
				 M225.113,314.678l-19.078-50.197c-1.106-2.911-3.896-4.835-7.011-4.835H83.445c-3.114,0-5.905,1.925-7.012,4.837L57.367,314.68
				c-3.21,8.447-11.438,14.123-20.474,14.123C24.821,328.802,15,318.98,15,306.908c0-1.037,0.076-2.093,0.226-3.137l13.621-95.195
				c9.414,12.617,24.453,20.802,41.369,20.802c24.669,0,45.971-17.555,50.65-41.741c0.787-4.067-1.872-8.001-5.938-8.788
				c-4.074-0.788-8.002,1.873-8.788,5.938c-3.317,17.146-18.426,29.591-35.924,29.591c-20.176,0-36.59-16.415-36.59-36.59
				c0-0.523-0.054-1.033-0.156-1.526l0.531-3.711c2.558-17.875,18.127-31.354,36.215-31.354c13.198,0,25.425,7.162,31.909,18.689
				c1.328,2.362,3.827,3.823,6.537,3.823h65.157c2.71,0,5.209-1.461,6.537-3.823c6.484-11.528,18.711-18.689,31.909-18.689
				c18.088,0,33.657,13.479,36.214,31.354l0.531,3.713c-0.101,0.492-0.155,1.001-0.155,1.523c0,20.176-16.414,36.59-36.59,36.59
				c-17.498,0-32.606-12.445-35.924-29.591c-0.786-4.065-4.711-6.726-8.788-5.938c-4.066,0.787-6.726,4.721-5.938,8.788
				c4.68,24.187,25.981,41.741,50.65,41.741c16.916,0,31.955-8.185,41.369-20.801l13.621,95.194c0.149,1.044,0.226,2.1,0.226,3.137
				c0,12.072-9.821,21.894-21.894,21.894C236.551,328.801,228.323,323.126,225.113,314.678z M225.822,455l13.125-35h199.605
				l13.125,35H225.822z"/>
			<path d="M84.307,170.289h-6.591v-6.591c0-4.142-3.357-7.5-7.5-7.5s-7.5,3.358-7.5,7.5v6.591h-6.59c-4.143,0-7.5,3.358-7.5,7.5
				c0,4.142,3.357,7.5,7.5,7.5h6.59v6.59c0,4.142,3.357,7.5,7.5,7.5s7.5-3.358,7.5-7.5v-6.59h6.591c4.143,0,7.5-3.358,7.5-7.5
				C91.807,173.647,88.449,170.289,84.307,170.289z"/>
		</g>
	</g>
</g>
</svg>