<?xml version="1.0" encoding="UTF-8" standalone="no"?>
<!-- Uploaded to: SVG Repo, www.svgrepo.com, Generator: SVG Repo Mixer Tools -->
<svg width="800px" height="800px" viewBox="-13 0 64 64" version="1.1" xmlns="http://www.w3.org/2000/svg" xmlns:xlink="http://www.w3.org/1999/xlink" xmlns:sketch="http://www.bohemiancoding.com/sketch/ns">
    
    <title>Iphone</title>
    <desc>Created with Sketch.</desc>
    <defs>
</defs>
    <g id="Page-1" stroke="none" stroke-width="1" fill="none" fill-rule="evenodd" sketch:type="MSPage">
        <g id="Iphone" sketch:type="MSLayerGroup" transform="translate(1.000000, 1.000000)" stroke="#6B6C6E" stroke-width="2">
            <path d="M36,60 C36,61.1 35.1,62 34,62 L2,62 C0.9,62 0,61.1 0,60 L0,2 C0,0.9 0.9,0 2,0 L34,0 C35.1,0 36,0.9 36,2 L36,60 L36,60 Z" id="Shape" sketch:type="MSShapeGroup">
</path>
            <path d="M35,52 L1,52" id="Shape" sketch:type="MSShapeGroup">
</path>
            <path d="M1,6 L35,6" id="Shape" sketch:type="MSShapeGroup">
</path>
            <circle id="Oval" sketch:type="MSShapeGroup" cx="18" cy="57" r="2">
</circle>
            <path d="M14,10 L7,16" id="Shape" sketch:type="MSShapeGroup">
</path>
            <path d="M20,11 L6.5,23.5" id="Shape" sketch:type="MSShapeGroup">
</path>
            <path d="M15,3 L21,3" id="Shape" sketch:type="MSShapeGroup">
</path>
        </g>
    </g>
</svg>