<svg id="Layer_1" data-name="Layer 1" xmlns="http://www.w3.org/2000/svg" viewBox="0 0 512 512"><defs><style>.cls-1{fill:#141f38;}</style></defs><title>notebook-chat-outline</title><path class="cls-1" d="M498.87,354.46H485.74V137.85a72.29,72.29,0,0,0-72.21-72.21H98.46a72.29,72.29,0,0,0-72.21,72.21V354.46H13.13A13.14,13.14,0,0,0,0,367.59v13.13a65.72,65.72,0,0,0,65.64,65.64H446.36A65.72,65.72,0,0,0,512,380.72V367.59A13.14,13.14,0,0,0,498.87,354.46ZM39.38,137.85A59.14,59.14,0,0,1,98.46,78.77H413.54a59.14,59.14,0,0,1,59.08,59.08V354.46H318.92L317,356.38h0l-24.33,24.33H219.33L195,356.38h0l-1.92-1.92H39.38Zm285,229.74H498.87v13.13a52.57,52.57,0,0,1-52.51,52.51H65.64a52.57,52.57,0,0,1-52.51-52.51V367.59H187.64l26.26,26.26H298.1Z"/><path class="cls-1" d="M216.62,196.92H387.28a32.82,32.82,0,1,0,0-65.64H216.62a32.82,32.82,0,0,0,0,65.64Zm0-52.51H387.28a19.69,19.69,0,1,1,0,39.38H216.62a19.69,19.69,0,0,1,0-39.38Z"/><path class="cls-1" d="M328.21,269.13a32.86,32.86,0,0,0-32.82-32.82H124.72a32.82,32.82,0,1,0,0,65.64H295.38A32.86,32.86,0,0,0,328.21,269.13Zm-223.18,0a19.71,19.71,0,0,1,19.69-19.69H295.38a19.69,19.69,0,0,1,0,39.38H124.72A19.71,19.71,0,0,1,105,269.13Z"/><path class="cls-1" d="M124.72,196.92A32.82,32.82,0,1,0,91.9,164.1,32.86,32.86,0,0,0,124.72,196.92Zm0-52.51A19.69,19.69,0,1,1,105,164.1,19.71,19.71,0,0,1,124.72,144.41Z"/><path class="cls-1" d="M387.28,236.31a32.82,32.82,0,1,0,32.82,32.82A32.86,32.86,0,0,0,387.28,236.31Zm0,52.51A19.69,19.69,0,1,1,407,269.13,19.71,19.71,0,0,1,387.28,288.82Z"/></svg>