<?xml version="1.0" encoding="iso-8859-1"?>
<!-- Uploaded to: SVG Repo, www.svgrepo.com, Generator: SVG Repo Mixer Tools -->
<svg fill="#000000" height="800px" width="800px" version="1.1" id="Layer_1" xmlns="http://www.w3.org/2000/svg" xmlns:xlink="http://www.w3.org/1999/xlink" 
	 viewBox="0 0 512 512" xml:space="preserve">
<g>
	<g>
		<path d="M512,44.355H98.628c-15.731,0-28.531,12.799-28.531,28.531v131.241h48.544v38.615h109.862
			c2.417,15.47,12.055,28.577,25.348,35.756v65.351c-8.48,4.579-15.472,11.571-20.051,20.05H82.998v-13.051l-25.937-10.375v-5.106
			c0-15.731-12.798-28.531-28.531-28.531C12.798,306.835,0,319.635,0,335.366v103.748c0,15.731,12.798,28.531,28.531,28.531
			c15.732,0,28.531-12.799,28.531-28.531v-5.107l25.937-10.375v-13.047h150.803c8.335,15.428,24.657,25.935,43.387,25.935
			c27.173,0,49.28-22.108,49.28-49.28c0-18.731-10.506-35.051-25.932-43.386v-65.361c13.288-7.18,22.921-20.285,25.337-35.75
			h109.862v-37.578h72.624v-96.486h-24.326L512,44.355z M41.499,439.114c0,7.151-5.817,12.968-12.968,12.968
			c-7.151,0-12.969-5.817-12.969-12.968V335.366c0-7.151,5.817-12.968,12.969-12.968c7.151,0,12.968,5.817,12.968,12.968V439.114z
			 M67.436,413.096l-10.375,4.15v-60.012l10.375,4.15V413.096z M82.998,395.023v-15.562h145.53
			c-0.404,2.535-0.619,5.131-0.619,7.779c0,2.649,0.217,5.248,0.62,7.783H82.998z M310.906,387.24
			c0,18.593-15.126,33.718-33.718,33.718s-33.718-15.125-33.718-33.718s15.126-33.718,33.718-33.718S310.906,368.647,310.906,387.24
			z M269.413,338.579v-54.812c2.535,0.404,5.13,0.619,7.776,0.619c2.65,0,5.249-0.217,7.786-0.621v54.816
			c-2.538-0.405-5.137-0.621-7.786-0.621C274.543,337.96,271.947,338.176,269.413,338.579z M277.188,268.824
			c-18.592,0-33.718-15.125-33.718-33.718c0-18.593,15.126-33.718,33.718-33.718s33.718,15.125,33.718,33.718
			C310.906,253.699,295.781,268.824,277.188,268.824z M402.102,139.803l-21.196,48.762h-55.052v15.562h65.255l21.196-48.761h7.866
			v71.814h-94.349c-3.803-23.417-24.16-41.354-48.634-41.354s-44.831,17.937-48.634,41.354h-94.351v-23.053h94.317v-15.562H85.659
			V72.886c0-7.151,5.817-12.968,12.969-12.968h389.637l-34.734,79.886H402.102z M466.414,189.602h-30.678v-34.237h28l2.679-6.162
			V189.602z M492.797,124.241v65.361h-10.821v-65.361H492.797z"/>
	</g>
</g>
<g>
	<g>
		<path d="M135.977,80.148v88.186h46.687V80.148H135.977z M167.102,152.772h-15.562V95.711h15.562V152.772z"/>
	</g>
</g>
<g>
	<g>
		<path d="M198.226,80.148v88.186h46.687V80.148H198.226z M229.35,152.772h-15.562V95.711h15.562V152.772z"/>
	</g>
</g>
<g>
	<g>
		<path d="M277.188,211.763c-12.872,0-23.343,10.472-23.343,23.343s10.471,23.343,23.343,23.343s23.343-10.472,23.343-23.343
			C300.532,222.234,290.06,211.763,277.188,211.763z M277.188,242.887c-4.291,0-7.781-3.49-7.781-7.781s3.49-7.781,7.781-7.781
			s7.781,3.49,7.781,7.781C284.969,239.396,281.479,242.887,277.188,242.887z"/>
	</g>
</g>
<g>
	<g>
		<path d="M277.188,363.897c-12.871,0-23.343,10.472-23.343,23.343s10.471,23.343,23.343,23.343s23.343-10.472,23.343-23.343
			S290.06,363.897,277.188,363.897z M277.188,395.021c-4.291,0-7.781-3.49-7.781-7.781s3.49-7.781,7.781-7.781
			s7.781,3.491,7.781,7.781C284.969,391.531,281.479,395.021,277.188,395.021z"/>
	</g>
</g>
</svg>