<?xml version="1.0" ?>
<!-- Uploaded to: SVG Repo, www.svgrepo.com, Generator: SVG Repo Mixer Tools -->
<svg fill="#000000" width="800px" height="800px" viewBox="0 0 64 64" version="1.1" xml:space="preserve" xmlns="http://www.w3.org/2000/svg" xmlns:xlink="http://www.w3.org/1999/xlink">
<g id="smart_lamp"/>
<g id="e-wallet"/>
<g id="virtual_reality"/>
<g id="payment"/>
<g id="cloud_storage"/>
<g id="security_camera"/>
<g id="smart_home"/>
<g id="connection"/>
<g id="game"/>
<g id="drone"/>
<g id="smart_car"/>
<g id="camera"/>
<g id="online_business"/>
<g id="smartwatch">
<g>
<path d="M55,25v-2c0-1.9-1.3-3.4-3-3.9V16c0-1.4-1-2.6-2.3-2.9L48,9.8V6c0-1.7-1.3-3-3-3H19c-1.7,0-3,1.3-3,3v3.8l-1.7,3.3    C13,13.4,12,14.6,12,16v3.1c-1.7,0.4-3,2-3,3.9v2c0,1.9,1.3,3.4,3,3.9v6.3c-1.7,0.4-3,2-3,3.9v2c0,1.9,1.3,3.4,3,3.9V48    c0,1.4,1,2.6,2.3,2.9l1.7,3.3V58c0,1.7,1.3,3,3,3h26c1.7,0,3-1.3,3-3v-3.8l1.7-3.3C51,50.6,52,49.4,52,48v-3.1c1.7-0.4,3-2,3-3.9    v-2c0-1.9-1.3-3.4-3-3.9v-6.3C53.7,28.4,55,26.9,55,25z M53,23v2c0,0.7-0.4,1.4-1,1.7v-5.5C52.6,21.6,53,22.3,53,23z M17.6,11    h28.8l1,2H16.6L17.6,11z M18,6c0-0.6,0.4-1,1-1h26c0.6,0,1,0.4,1,1v3H18V6z M11,25v-2c0-0.7,0.4-1.4,1-1.7v5.5    C11.4,26.4,11,25.7,11,25z M11,41v-2c0-0.7,0.4-1.4,1-1.7v5.5C11.4,42.4,11,41.7,11,41z M46.4,53H17.6l-1-2h30.8L46.4,53z M46,58    c0,0.6-0.4,1-1,1H19c-0.6,0-1-0.4-1-1v-3h28V58z M50,48c0,0.6-0.4,1-1,1H15c-0.6,0-1-0.4-1-1v-4v-8v-8v-8v-4c0-0.6,0.4-1,1-1h34    c0.6,0,1,0.4,1,1v4v8v8v8V48z M53,39v2c0,0.7-0.4,1.4-1,1.7v-5.5C52.6,37.6,53,38.3,53,39z"/>
<path d="M32,33c-2.8,0-5,2.2-5,5s2.2,5,5,5s5-2.2,5-5S34.8,33,32,33z M32,41c-1.7,0-3-1.3-3-3s1.3-3,3-3s3,1.3,3,3S33.7,41,32,41z    "/>
<path d="M32,29c-2.7,0-5.2,1.3-6.7,3.6c-0.3,0.5-0.2,1.1,0.3,1.4c0.5,0.3,1.1,0.2,1.4-0.3c1.1-1.7,3-2.7,5-2.7s3.9,1,5,2.7    c0.2,0.3,0.5,0.4,0.8,0.4c0.2,0,0.4-0.1,0.6-0.2c0.5-0.3,0.6-0.9,0.3-1.4C37.2,30.3,34.7,29,32,29z"/>
<path d="M32,25c-3.8,0-7.2,1.7-9.5,4.7c-0.3,0.4-0.3,1.1,0.2,1.4c0.4,0.3,1.1,0.3,1.4-0.2C26,28.4,28.9,27,32,27s6,1.4,7.9,3.9    c0.2,0.3,0.5,0.4,0.8,0.4c0.2,0,0.4-0.1,0.6-0.2c0.4-0.3,0.5-1,0.2-1.4C39.2,26.7,35.8,25,32,25z"/>
<path d="M32,21c-4.8,0-9.3,2.1-12.3,5.8c-0.4,0.4-0.3,1.1,0.1,1.4c0.4,0.4,1.1,0.3,1.4-0.1C23.9,24.9,27.8,23,32,23    s8.1,1.9,10.8,5.1c0.2,0.2,0.5,0.4,0.8,0.4c0.2,0,0.5-0.1,0.6-0.2c0.4-0.4,0.5-1,0.1-1.4C41.3,23.1,36.8,21,32,21z"/>
</g>
</g>
<g id="online_shopping"/>
<g id="smart_Television"/>
<g id="security"/>
<g id="communication"/>
<g id="remote_control"/>
<g id="satelite_dish"/>
</svg>