<?xml version="1.0" encoding="iso-8859-1"?>
<!-- Uploaded to: SVG Repo, www.svgrepo.com, Generator: SVG Repo Mixer Tools -->
<svg fill="#000000" version="1.1" id="Layer_1" xmlns="http://www.w3.org/2000/svg" xmlns:xlink="http://www.w3.org/1999/xlink" 
	 viewBox="0 0 512 512" xml:space="preserve">
<g>
	<g>
		<rect x="175.02" y="210.547" width="15.674" height="15.673"/>
	</g>
</g>
<g>
	<g>
		<rect x="199.398" y="200.098" width="15.673" height="26.122"/>
	</g>
</g>
<g>
	<g>
		<rect x="223.786" y="210.547" width="15.673" height="15.673"/>
	</g>
</g>
<g>
	<g>
		<rect x="248.163" y="200.098" width="15.673" height="26.122"/>
	</g>
</g>
<g>
	<g>
		<rect x="272.541" y="210.547" width="15.673" height="15.673"/>
	</g>
</g>
<g>
	<g>
		<rect x="296.929" y="200.098" width="15.673" height="26.122"/>
	</g>
</g>
<g>
	<g>
		<rect x="321.306" y="210.547" width="15.673" height="15.673"/>
	</g>
</g>
<g>
	<g>
		<path d="M314.389,284.733h-96.818c-4.351-2.963-9.603-4.698-15.252-4.698c-14.98,0-27.167,12.187-27.167,27.167
			s12.188,27.167,27.167,27.167c5.655,0,10.91-1.739,15.264-4.706h96.807c6.011,0,11.654-2.341,15.875-6.58
			c4.243-4.242,6.58-9.884,6.58-15.886C336.844,294.811,326.77,284.733,314.389,284.733z M202.318,318.696
			c-6.337,0-11.494-5.157-11.494-11.494c0-6.338,5.157-11.494,11.494-11.494c6.337,0,11.494,5.156,11.494,11.494
			C213.812,313.539,208.656,318.696,202.318,318.696z M319.17,312.011c-1.271,1.277-2.969,1.978-4.781,1.978h-85.761
			c0.56-2.17,0.859-4.445,0.859-6.788c0-2.346-0.299-4.624-0.861-6.796h85.764c3.74,0,6.781,3.047,6.781,6.792
			C321.17,309.012,320.464,310.718,319.17,312.011z"/>
	</g>
</g>
<g>
	<g>
		<circle cx="28.735" cy="163.004" r="5.224"/>
	</g>
</g>
<g>
	<g>
		<circle cx="130.612" cy="163.004" r="5.224"/>
	</g>
</g>
<g>
	<g>
		<circle cx="28.735" cy="348.996" r="5.224"/>
	</g>
</g>
<g>
	<g>
		<circle cx="130.612" cy="348.996" r="5.224"/>
	</g>
</g>
<g>
	<g>
		<circle cx="28.735" cy="256" r="5.224"/>
	</g>
</g>
<g>
	<g>
		<circle cx="130.612" cy="256" r="5.224"/>
	</g>
</g>
<g>
	<g>
		<path d="M79.673,248.36c-30.249,0-54.857,24.609-54.857,54.857c0,30.248,24.608,54.857,54.857,54.857
			c30.249,0,54.857-24.609,54.857-54.857C134.531,272.969,109.922,248.36,79.673,248.36z M79.673,342.401
			c-21.606,0-39.184-17.577-39.184-39.184c0-21.606,17.577-39.184,39.184-39.184c21.606,0,39.184,17.577,39.184,39.184
			C118.857,324.823,101.28,342.401,79.673,342.401z"/>
	</g>
</g>
<g>
	<g>
		<path d="M79.673,276.572c-14.692,0-26.645,11.954-26.645,26.645c0,14.691,11.953,26.645,26.645,26.645
			c14.692,0,26.645-11.954,26.645-26.645C106.318,288.526,94.366,276.572,79.673,276.572z M79.673,314.188
			c-6.05,0-10.971-4.922-10.971-10.971c0-6.05,4.922-10.971,10.971-10.971c6.05,0,10.971,4.921,10.971,10.971
			C90.645,309.267,85.723,314.188,79.673,314.188z"/>
	</g>
</g>
<g>
	<g>
		<path d="M79.673,153.927c-24.487,0-44.408,19.921-44.408,44.408s19.921,44.408,44.408,44.408s44.408-19.921,44.408-44.408
			S104.161,153.927,79.673,153.927z M79.673,227.07c-15.845,0-28.735-12.891-28.735-28.735c0-15.844,12.89-28.735,28.735-28.735
			c15.845,0,28.735,12.891,28.735,28.735C108.408,214.179,95.518,227.07,79.673,227.07z"/>
	</g>
</g>
<g>
	<g>
		<path d="M79.673,177.437c-11.523,0-20.898,9.375-20.898,20.898s9.375,20.898,20.898,20.898s20.898-9.375,20.898-20.898
			S91.197,177.437,79.673,177.437z M79.673,203.56c-2.881,0-5.224-2.344-5.224-5.224c0-2.881,2.344-5.224,5.224-5.224
			s5.224,2.344,5.224,5.224C84.898,201.216,82.554,203.56,79.673,203.56z"/>
	</g>
</g>
<g>
	<g>
		<path d="M352.653,134.267v39.71H159.347v-39.71H0v243.465h159.347v-20.898h15.673v20.898h47.02v-20.898h67.918v20.898h47.02
			v-20.898h15.673v20.898H512V134.267H352.653z M143.673,362.059h-128V149.941h128V362.059z M159.347,252.345h15.673v5.224h-15.673
			V252.345z M206.367,362.059h-15.673v-5.224h15.673V362.059z M321.306,362.059h-15.674v-5.224h15.674V362.059z M352.653,341.161
			H159.347v-67.918h193.306V341.161z M190.694,257.569v-5.224h15.673v5.224H190.694z M222.041,257.569v-5.224h67.918v5.224H222.041z
			 M305.633,257.569v-5.224h15.674v5.224H305.633z M352.653,257.569H336.98v-5.224h15.673V257.569z M352.653,236.672H159.347v-47.02
			h193.306V236.672z M496.327,362.059h-128V149.941h128V362.059z"/>
	</g>
</g>
<g>
	<g>
		<circle cx="381.388" cy="163.004" r="5.224"/>
	</g>
</g>
<g>
	<g>
		<circle cx="483.265" cy="163.004" r="5.224"/>
	</g>
</g>
<g>
	<g>
		<circle cx="381.388" cy="348.996" r="5.224"/>
	</g>
</g>
<g>
	<g>
		<circle cx="483.265" cy="348.996" r="5.224"/>
	</g>
</g>
<g>
	<g>
		<circle cx="381.388" cy="256" r="5.224"/>
	</g>
</g>
<g>
	<g>
		<circle cx="483.265" cy="256" r="5.224"/>
	</g>
</g>
<g>
	<g>
		<path d="M432.327,248.36c-30.249,0-54.857,24.609-54.857,54.857c0,30.248,24.608,54.857,54.857,54.857
			c30.249,0,54.857-24.609,54.857-54.857C487.184,272.969,462.575,248.36,432.327,248.36z M432.327,342.401
			c-21.606,0-39.184-17.577-39.184-39.184c0-21.606,17.577-39.184,39.184-39.184c21.606,0,39.184,17.577,39.184,39.184
			C471.51,324.823,453.933,342.401,432.327,342.401z"/>
	</g>
</g>
<g>
	<g>
		<path d="M432.327,276.572c-14.691,0-26.645,11.954-26.645,26.645c0,14.691,11.954,26.645,26.645,26.645
			c14.691,0,26.645-11.954,26.645-26.645C458.971,288.526,447.018,276.572,432.327,276.572z M432.327,314.188
			c-6.05,0-10.971-4.922-10.971-10.971c0-6.05,4.921-10.971,10.971-10.971c6.05,0,10.971,4.921,10.971,10.971
			C443.298,309.267,438.376,314.188,432.327,314.188z"/>
	</g>
</g>
<g>
	<g>
		<path d="M432.327,153.927c-24.487,0-44.408,19.921-44.408,44.408s19.921,44.408,44.408,44.408s44.408-19.921,44.408-44.408
			S456.814,153.927,432.327,153.927z M432.327,227.07c-15.845,0-28.735-12.891-28.735-28.735c0-15.844,12.89-28.735,28.735-28.735
			s28.735,12.891,28.735,28.735C461.061,214.179,448.171,227.07,432.327,227.07z"/>
	</g>
</g>
<g>
	<g>
		<path d="M432.327,177.437c-11.523,0-20.898,9.375-20.898,20.898s9.375,20.898,20.898,20.898s20.898-9.375,20.898-20.898
			S443.85,177.437,432.327,177.437z M432.327,203.56c-2.881,0-5.224-2.344-5.224-5.224c0-2.881,2.344-5.224,5.224-5.224
			c2.881,0,5.224,2.344,5.224,5.224C437.551,201.216,435.207,203.56,432.327,203.56z"/>
	</g>
</g>
</svg>